solid Chessboard 40
facet normal -1.0 0.0 0.0
outer loop
vertex -59.3400000206999 57.742857163 2.457142858
vertex -59.3400000206999 14.742857148 2.457142858
vertex -59.3400000206999 14.742857148 4.914285716
endloop
endfacet
facet normal -1.0 0.0 0.0
outer loop
vertex -59.3400000206999 57.742857163 2.457142858
vertex -59.3400000206999 14.742857148 4.914285716
vertex -59.3400000206999 57.742857163 4.914285716
endloop
endfacet
facet normal 0.0 -1.0 0.0
outer loop
vertex -16.3400000056999 14.742857148 4.914285716
vertex -59.3400000206999 14.742857148 2.457142858
vertex -16.3400000056999 14.742857148 2.457142858
endloop
endfacet
facet normal 0.0 -1.0 0.0
outer loop
vertex -59.3400000206999 14.742857148 4.914285716
vertex -59.3400000206999 14.742857148 2.457142858
vertex -16.3400000056999 14.742857148 4.914285716
endloop
endfacet
facet normal -0.996498243766954 -9.09133532214821e-020 0.0836136960633605
outer loop
vertex -59.3228211855063 57.7256759844923 5.11902106327427
vertex -59.3400000206999 14.742857148 4.914285716
vertex -59.3228211855063 14.7600359831936 5.11902106327427
endloop
endfacet
facet normal -0.996498243766954 3.02560396629742e-020 0.0836136960633605
outer loop
vertex -59.3400000206999 57.742857163 4.914285716
vertex -59.3400000206999 14.742857148 4.914285716
vertex -59.3228211855063 57.7256759844923 5.11902106327427
endloop
endfacet
facet normal -0.968629626257353 1.25300445148889e-019 0.248508847199733
outer loop
vertex -59.2717638876456 57.6746198582887 5.31803052270299
vertex -59.3228211855063 14.7600359831936 5.11902106327427
vertex -59.2717638876456 14.8110932810543 5.31803052270299
endloop
endfacet
facet normal -0.968629626257353 1.24705567326973e-019 0.248508847199733
outer loop
vertex -59.3228211855063 57.7256759844923 5.11902106327427
vertex -59.3228211855063 14.7600359831936 5.11902106327427
vertex -59.2717638876456 57.6746198582887 5.31803052270299
endloop
endfacet
facet normal -0.913674159688949 -1.33878811260912e-019 0.406447450375437
outer loop
vertex -59.1882575486796 57.5911135193226 5.50574872345207
vertex -59.2717638876456 14.8110932810543 5.31803052270299
vertex -59.1882575486796 14.8945996200204 5.50574872345207
endloop
endfacet
facet normal -0.913674159688949 2.65675115544774e-019 0.406447450375437
outer loop
vertex -59.2717638876456 57.6746198582887 5.31803052270299
vertex -59.2717638876456 14.8110932810543 5.31803052270299
vertex -59.1882575486796 57.5911135193226 5.50574872345207
endloop
endfacet
facet normal -0.820182804256586 3.72357771154155e-019 0.572101536094602
outer loop
vertex -59.0384295642261 57.4412867065262 5.72054684702292
vertex -59.1882575486796 14.8945996200204 5.50574872345207
vertex -59.0384295642261 15.0444276044738 5.72054684702292
endloop
endfacet
facet normal -0.820182804256586 0.0 0.572101536094602
outer loop
vertex -59.1882575486796 57.5911135193226 5.50574872345207
vertex -59.1882575486796 14.8945996200204 5.50574872345207
vertex -59.0384295642261 57.4412867065262 5.72054684702292
endloop
endfacet
facet normal -0.666405410211404 6.0638283557192e-019 0.745589584986922
outer loop
vertex -58.8089874854195 57.2118434560625 5.92562138900381
vertex -59.0384295642261 15.0444276044738 5.72054684702292
vertex -58.8089874854195 15.2738696832805 5.92562138900381
endloop
endfacet
facet normal -0.460214695210045 2.54623511112665e-019 0.887807656146716
outer loop
vertex -58.5357805020304 15.5470766666696 6.06724425936223
vertex -58.8089874854195 57.2118434560625 5.92562138900381
vertex -58.8089874854195 15.2738696832805 5.92562138900381
endloop
endfacet
facet normal -0.666405410211404 5.93327420201019e-019 0.745589584986922
outer loop
vertex -58.8089874854195 57.2118434560625 5.92562138900381
vertex -59.0384295642261 57.4412867065262 5.72054684702292
vertex -59.0384295642261 15.0444276044738 5.72054684702292
endloop
endfacet
facet normal -0.460214695210045 0.0 0.887807656146716
outer loop
vertex -58.5357805020304 56.9386364726734 6.06724425936223
vertex -58.8089874854195 57.2118434560625 5.92562138900381
vertex -58.5357805020304 15.5470766666696 6.06724425936223
endloop
endfacet
facet normal -0.261426617386447 0.0 0.965223354318512
outer loop
vertex -58.3269466985082 56.7298050124652 6.12380600189207
vertex -58.5357805020304 15.5470766666696 6.06724425936223
vertex -58.3269466985082 15.7559104701918 6.12380600189207
endloop
endfacet
facet normal -0.261426617386447 0.0 0.965223354318512
outer loop
vertex -58.3269466985082 56.7298050124652 6.12380600189207
vertex -58.5357805020304 56.9386364726734 6.06724425936223
vertex -58.5357805020304 15.5470766666696 6.06724425936223
endloop
endfacet
facet normal -0.0880535922072196 6.14047096287436e-020 0.996115738706805
outer loop
vertex -58.1114285916999 56.514285734 6.142857145
vertex -58.3269466985082 15.7559104701918 6.12380600189207
vertex -58.1114285916999 15.971428577 6.142857145
endloop
endfacet
facet normal -0.0880535922072196 0.0 0.996115738706805
outer loop
vertex -58.1114285916999 56.514285734 6.142857145
vertex -58.3269466985082 56.7298050124652 6.12380600189207
vertex -58.3269466985082 15.7559104701918 6.12380600189207
endloop
endfacet
facet normal 0.0 0.0 -1.0
outer loop
vertex -16.3400000056999 57.742857163 2.457142858
vertex -59.3400000206999 14.742857148 2.457142858
vertex -59.3400000206999 57.742857163 2.457142858
endloop
endfacet
facet normal 0.0 0.0 -1.0
outer loop
vertex -16.3400000056999 14.742857148 2.457142858
vertex -59.3400000206999 14.742857148 2.457142858
vertex -16.3400000056999 57.742857163 2.457142858
endloop
endfacet
facet normal -0.0 1.0 -0.0
outer loop
vertex -16.3400000056999 57.742857163 4.914285716
vertex -16.3400000056999 57.742857163 2.457142858
vertex -59.3400000206999 57.742857163 2.457142858
endloop
endfacet
facet normal -0.0 1.0 -0.0
outer loop
vertex -16.3400000056999 57.742857163 4.914285716
vertex -59.3400000206999 57.742857163 2.457142858
vertex -59.3400000206999 57.742857163 4.914285716
endloop
endfacet
facet normal 1.0 0.0 0.0
outer loop
vertex -16.3400000056999 57.742857163 2.457142858
vertex -16.3400000056999 14.742857148 4.914285716
vertex -16.3400000056999 14.742857148 2.457142858
endloop
endfacet
facet normal 1.0 0.0 0.0
outer loop
vertex -16.3400000056999 57.742857163 4.914285716
vertex -16.3400000056999 14.742857148 4.914285716
vertex -16.3400000056999 57.742857163 2.457142858
endloop
endfacet
facet normal -3.03044510738274e-020 -0.996498243766954 0.0836136960633605
outer loop
vertex -59.3228211855063 14.7600359831936 5.11902106327427
vertex -59.3400000206999 14.742857148 4.914285716
vertex -16.3571811842076 14.7600359831936 5.11902106327427
endloop
endfacet
facet normal 3.02560396629742e-020 -0.996498243766954 0.0836136960633605
outer loop
vertex -16.3571811842076 14.7600359831936 5.11902106327427
vertex -59.3400000206999 14.742857148 4.914285716
vertex -16.3400000056999 14.742857148 4.914285716
endloop
endfacet
facet normal 1.25300445148889e-019 -0.968629626257353 0.248508847199733
outer loop
vertex -59.2717638876456 14.8110932810543 5.31803052270299
vertex -59.3228211855063 14.7600359831936 5.11902106327427
vertex -16.4082373104112 14.8110932810543 5.31803052270299
endloop
endfacet
facet normal 0.0 -0.968629626257353 0.248508847199733
outer loop
vertex -16.4082373104112 14.8110932810543 5.31803052270299
vertex -59.3228211855063 14.7600359831936 5.11902106327427
vertex -16.3571811842076 14.7600359831936 5.11902106327427
endloop
endfacet
facet normal 0.0 -0.913674159688949 0.406447450375437
outer loop
vertex -59.1882575486796 14.8945996200204 5.50574872345207
vertex -59.2717638876456 14.8110932810543 5.31803052270299
vertex -16.4917436493773 14.8945996200204 5.50574872345207
endloop
endfacet
facet normal 1.32837557772387e-019 -0.913674159688949 0.406447450375437
outer loop
vertex -16.4917436493773 14.8945996200204 5.50574872345207
vertex -59.2717638876456 14.8110932810543 5.31803052270299
vertex -16.4082373104112 14.8110932810543 5.31803052270299
endloop
endfacet
facet normal 3.72357771154155e-019 -0.820182804256586 0.572101536094602
outer loop
vertex -59.0384295642261 15.0444276044738 5.72054684702292
vertex -59.1882575486796 14.8945996200204 5.50574872345207
vertex -16.6415704621737 15.0444276044738 5.72054684702292
endloop
endfacet
facet normal 7.34299024578848e-019 -0.820182804256586 0.572101536094602
outer loop
vertex -16.6415704621737 15.0444276044738 5.72054684702292
vertex -59.1882575486796 14.8945996200204 5.50574872345207
vertex -16.4917436493773 14.8945996200204 5.50574872345207
endloop
endfacet
facet normal -3.0319141778596e-019 -0.666405410211404 0.745589584986922
outer loop
vertex -16.8710137126374 15.2738696832805 5.92562138900381
vertex -58.8089874854195 15.2738696832805 5.92562138900381
vertex -59.0384295642261 15.0444276044738 5.72054684702292
endloop
endfacet
facet normal 5.93327420201019e-019 -0.666405410211404 0.745589584986922
outer loop
vertex -16.6415704621737 15.0444276044738 5.72054684702292
vertex -16.8710137126374 15.2738696832805 5.92562138900381
vertex -59.0384295642261 15.0444276044738 5.72054684702292
endloop
endfacet
facet normal 5.22781006121969e-019 -0.460214695210045 0.887807656146716
outer loop
vertex -17.1442206960265 15.5470766666696 6.06724425936223
vertex -58.5357805020304 15.5470766666696 6.06724425936223
vertex -58.8089874854195 15.2738696832805 5.92562138900381
endloop
endfacet
facet normal 2.54623511112665e-019 -0.460214695210045 0.887807656146716
outer loop
vertex -16.8710137126374 15.2738696832805 5.92562138900381
vertex -17.1442206960265 15.5470766666696 6.06724425936223
vertex -58.8089874854195 15.2738696832805 5.92562138900381
endloop
endfacet
facet normal 1.24088015442248e-019 -0.261426617386447 0.965223354318512
outer loop
vertex -17.3530521562347 15.7559104701918 6.12380600189207
vertex -58.3269466985082 15.7559104701918 6.12380600189207
vertex -58.5357805020304 15.5470766666696 6.06724425936223
endloop
endfacet
facet normal -1.21596407483981e-019 -0.261426617386447 0.965223354318512
outer loop
vertex -17.1442206960265 15.5470766666696 6.06724425936223
vertex -17.3530521562347 15.7559104701918 6.12380600189207
vertex -58.5357805020304 15.5470766666696 6.06724425936223
endloop
endfacet
facet normal 0.0 -0.0880535922072196 0.996115738706805
outer loop
vertex -17.5685714346999 15.971428577 6.142857145
vertex -58.1114285916999 15.971428577 6.142857145
vertex -58.3269466985082 15.7559104701918 6.12380600189207
endloop
endfacet
facet normal 0.0 -0.0880535922072196 0.996115738706805
outer loop
vertex -17.3530521562347 15.7559104701918 6.12380600189207
vertex -17.5685714346999 15.971428577 6.142857145
vertex -58.3269466985082 15.7559104701918 6.12380600189207
endloop
endfacet
facet normal 0.0 0.0 1.0
outer loop
vertex -17.5685714346999 15.971428577 6.142857145
vertex -58.1114285916999 56.514285734 6.142857145
vertex -58.1114285916999 15.971428577 6.142857145
endloop
endfacet
facet normal 0.0 0.0 1.0
outer loop
vertex -17.5685714346999 56.514285734 6.142857145
vertex -58.1114285916999 56.514285734 6.142857145
vertex -17.5685714346999 15.971428577 6.142857145
endloop
endfacet
facet normal -3.03044221718842e-020 0.996497293387238 0.0836250218051359
outer loop
vertex -16.3571811842076 57.7256759844923 5.11902106327427
vertex -59.3400000206999 57.742857163 4.914285716
vertex -59.3228211855063 57.7256759844923 5.11902106327427
endloop
endfacet
facet normal 0.0 0.996497293387238 0.0836250218051359
outer loop
vertex -16.3571811842076 57.7256759844923 5.11902106327427
vertex -16.3400000056999 57.742857163 4.914285716
vertex -59.3400000206999 57.742857163 4.914285716
endloop
endfacet
facet normal 3.75901868163215e-019 0.968630998971368 0.24850349661872
outer loop
vertex -16.4082373104112 57.6746198582887 5.31803052270299
vertex -59.3228211855063 57.7256759844923 5.11902106327427
vertex -59.2717638876456 57.6746198582887 5.31803052270299
endloop
endfacet
facet normal 0.0 0.968630998971368 0.24850349661872
outer loop
vertex -16.4082373104112 57.6746198582887 5.31803052270299
vertex -16.3571811842076 57.7256759844923 5.11902106327427
vertex -59.3228211855063 57.7256759844923 5.11902106327427
endloop
endfacet
facet normal -1.33878811260911e-019 0.913674159688946 0.406447450375444
outer loop
vertex -16.4917436493773 57.5911135193226 5.50574872345207
vertex -59.2717638876456 57.6746198582887 5.31803052270299
vertex -59.1882575486796 57.5911135193226 5.50574872345207
endloop
endfacet
facet normal -3.67150452005628e-019 0.820184903507832 0.572098526530044
outer loop
vertex -59.0384295642261 57.4412867065262 5.72054684702292
vertex -16.4917436493773 57.5911135193226 5.50574872345207
vertex -59.1882575486796 57.5911135193226 5.50574872345207
endloop
endfacet
facet normal 1.32837557772387e-019 0.913674159688946 0.406447450375444
outer loop
vertex -16.4917436493773 57.5911135193226 5.50574872345207
vertex -16.4082373104112 57.6746198582887 5.31803052270299
vertex -59.2717638876456 57.6746198582887 5.31803052270299
endloop
endfacet
facet normal 0.0 0.666403518456489 0.74559127582665
outer loop
vertex -16.6415704621737 57.4412867065262 5.72054684702292
vertex -59.0384295642261 57.4412867065262 5.72054684702292
vertex -58.8089874854195 57.2118434560625 5.92562138900381
endloop
endfacet
facet normal 0.0 0.820184903507832 0.572098526530044
outer loop
vertex -16.6415704621737 57.4412867065262 5.72054684702292
vertex -16.4917436493773 57.5911135193226 5.50574872345207
vertex -59.0384295642261 57.4412867065262 5.72054684702292
endloop
endfacet
facet normal 2.54623511112665e-019 0.460214695210045 0.887807656146716
outer loop
vertex -16.8710137126374 57.2118434560625 5.92562138900381
vertex -58.8089874854195 57.2118434560625 5.92562138900381
vertex -58.5357805020304 56.9386364726734 6.06724425936223
endloop
endfacet
facet normal 3.03189008853616e-019 0.666403518456489 0.74559127582665
outer loop
vertex -16.6415704621737 57.4412867065262 5.72054684702292
vertex -58.8089874854195 57.2118434560625 5.92562138900381
vertex -16.8710137126374 57.2118434560625 5.92562138900381
endloop
endfacet
facet normal 0.0 0.261429350385722 0.965222614093194
outer loop
vertex -17.1442206960265 56.9386364726734 6.06724425936223
vertex -58.5357805020304 56.9386364726734 6.06724425936223
vertex -58.3269466985082 56.7298050124652 6.12380600189207
endloop
endfacet
facet normal 0.0 0.460214695210045 0.887807656146716
outer loop
vertex -16.8710137126374 57.2118434560625 5.92562138900381
vertex -58.5357805020304 56.9386364726734 6.06724425936223
vertex -17.1442206960265 56.9386364726734 6.06724425936223
endloop
endfacet
facet normal 6.01189227674721e-020 0.0880531172209174 0.996115780694031
outer loop
vertex -17.3530521562347 56.7298050124652 6.12380600189207
vertex -58.3269466985082 56.7298050124652 6.12380600189207
vertex -58.1114285916999 56.514285734 6.142857145
endloop
endfacet
facet normal 0.0 0.261429350385722 0.965222614093194
outer loop
vertex -17.1442206960265 56.9386364726734 6.06724425936223
vertex -58.3269466985082 56.7298050124652 6.12380600189207
vertex -17.3530521562347 56.7298050124652 6.12380600189207
endloop
endfacet
facet normal 0.0 0.0880531172209174 0.996115780694031
outer loop
vertex -17.3530521562347 56.7298050124652 6.12380600189207
vertex -58.1114285916999 56.514285734 6.142857145
vertex -17.5685714346999 56.514285734 6.142857145
endloop
endfacet
facet normal 0.996497293387238 3.03044221718842e-020 0.0836250218051359
outer loop
vertex -16.3571811842076 57.7256759844923 5.11902106327427
vertex -16.3571811842076 14.7600359831936 5.11902106327427
vertex -16.3400000056999 14.742857148 4.914285716
endloop
endfacet
facet normal 0.996497293387238 -0.0 0.0836250218051359
outer loop
vertex -16.3400000056999 57.742857163 4.914285716
vertex -16.3571811842076 57.7256759844923 5.11902106327427
vertex -16.3400000056999 14.742857148 4.914285716
endloop
endfacet
facet normal 0.968630998971368 1.25300622721072e-019 0.24850349661872
outer loop
vertex -16.4082373104112 57.6746198582887 5.31803052270299
vertex -16.4082373104112 14.8110932810543 5.31803052270299
vertex -16.3571811842076 14.7600359831936 5.11902106327427
endloop
endfacet
facet normal 0.913674159688946 -1.32837557772387e-019 0.406447450375444
outer loop
vertex -16.4082373104112 57.6746198582887 5.31803052270299
vertex -16.4917436493773 14.8945996200204 5.50574872345207
vertex -16.4082373104112 14.8110932810543 5.31803052270299
endloop
endfacet
facet normal 0.968630998971368 -0.0 0.24850349661872
outer loop
vertex -16.3571811842076 57.7256759844923 5.11902106327427
vertex -16.4082373104112 57.6746198582887 5.31803052270299
vertex -16.3571811842076 14.7600359831936 5.11902106327427
endloop
endfacet
facet normal 0.820184903507832 -3.67150452005628e-019 0.572098526530044
outer loop
vertex -16.4917436493773 57.5911135193226 5.50574872345207
vertex -16.6415704621737 15.0444276044738 5.72054684702292
vertex -16.4917436493773 14.8945996200204 5.50574872345207
endloop
endfacet
facet normal 0.913674159688946 1.33878811260911e-019 0.406447450375444
outer loop
vertex -16.4082373104112 57.6746198582887 5.31803052270299
vertex -16.4917436493773 57.5911135193226 5.50574872345207
vertex -16.4917436493773 14.8945996200204 5.50574872345207
endloop
endfacet
facet normal 0.666403518456489 -2.96661353032451e-019 0.74559127582665
outer loop
vertex -16.6415704621737 57.4412867065262 5.72054684702292
vertex -16.8710137126374 15.2738696832805 5.92562138900381
vertex -16.6415704621737 15.0444276044738 5.72054684702292
endloop
endfacet
facet normal 0.820184903507832 -7.44717448401711e-019 0.572098526530044
outer loop
vertex -16.4917436493773 57.5911135193226 5.50574872345207
vertex -16.6415704621737 57.4412867065262 5.72054684702292
vertex -16.6415704621737 15.0444276044738 5.72054684702292
endloop
endfacet
facet normal 0.460214695210045 2.54623511112665e-019 0.887807656146716
outer loop
vertex -16.8710137126374 57.2118434560625 5.92562138900381
vertex -17.1442206960265 15.5470766666696 6.06724425936223
vertex -16.8710137126374 15.2738696832805 5.92562138900381
endloop
endfacet
facet normal 0.666403518456489 -0.0 0.74559127582665
outer loop
vertex -16.6415704621737 57.4412867065262 5.72054684702292
vertex -16.8710137126374 57.2118434560625 5.92562138900381
vertex -16.8710137126374 15.2738696832805 5.92562138900381
endloop
endfacet
facet normal 0.261429350385722 -0.0 0.965222614093194
outer loop
vertex -17.1442206960265 56.9386364726734 6.06724425936223
vertex -17.3530521562347 15.7559104701918 6.12380600189207
vertex -17.1442206960265 15.5470766666696 6.06724425936223
endloop
endfacet
facet normal 0.460214695210045 -0.0 0.887807656146716
outer loop
vertex -16.8710137126374 57.2118434560625 5.92562138900381
vertex -17.1442206960265 56.9386364726734 6.06724425936223
vertex -17.1442206960265 15.5470766666696 6.06724425936223
endloop
endfacet
facet normal 0.0880531172209174 6.01189227674721e-020 0.996115780694031
outer loop
vertex -17.3530521562347 56.7298050124652 6.12380600189207
vertex -17.5685714346999 15.971428577 6.142857145
vertex -17.3530521562347 15.7559104701918 6.12380600189207
endloop
endfacet
facet normal 0.261429350385722 -1.24090705095738e-019 0.965222614093194
outer loop
vertex -17.1442206960265 56.9386364726734 6.06724425936223
vertex -17.3530521562347 56.7298050124652 6.12380600189207
vertex -17.3530521562347 15.7559104701918 6.12380600189207
endloop
endfacet
facet normal 0.0880531172209174 -0.0 0.996115780694031
outer loop
vertex -17.3530521562347 56.7298050124652 6.12380600189207
vertex -17.5685714346999 56.514285734 6.142857145
vertex -17.5685714346999 15.971428577 6.142857145
endloop
endfacet
endsolid Chessboard 40
